<svg width="24" height="24" viewBox="0 0 24 24" fill="none" xmlns="http://www.w3.org/2000/svg">
<path d="M16.7348 4.49896L15.4548 5.49896L10.0048 9.54896L4.55483 5.45896L3.27483 4.45896C2.97329 4.20951 2.60518 4.054 2.21612 4.01171C1.82706 3.96942 1.43414 4.04221 1.08604 4.22105C0.737943 4.39989 0.449961 4.67692 0.257775 5.01784C0.0655881 5.35875 -0.0223571 5.74856 0.00483439 6.13896V17.729C0.00483439 18.0897 0.14812 18.4356 0.403169 18.6906C0.658219 18.9457 1.00414 19.089 1.36483 19.089H4.55483V11.369L10.0048 15.459L15.4548 11.369V19.089H18.6448C19.0055 19.089 19.3515 18.9457 19.6065 18.6906C19.8615 18.4356 20.0048 18.0897 20.0048 17.729V6.13896C20.0236 5.75192 19.9296 5.36777 19.7341 5.03319C19.5386 4.6986 19.2502 4.42801 18.9038 4.25429C18.5574 4.08058 18.168 4.01122 17.783 4.05466C17.3979 4.09809 17.0338 4.25245 16.7348 4.49896Z" fill="black"/>
</svg>
