<svg width="27" height="26" viewBox="0 0 27 26" fill="none" xmlns="http://www.w3.org/2000/svg">
<path d="M23.5653 8.9971C23.554 8.17661 23.3945 7.36427 23.094 6.59643C22.8334 5.94876 22.4353 5.36056 21.9253 4.86941C21.4152 4.37827 20.8044 3.99497 20.1318 3.74401C19.3447 3.45948 18.5132 3.30563 17.6726 3.28901C16.5903 3.24243 16.2472 3.22943 13.5 3.22943C10.7527 3.22943 10.4006 3.22943 9.32621 3.28901C8.48601 3.30576 7.65485 3.4596 6.86808 3.74401C6.1954 3.99479 5.58448 4.37803 5.07442 4.8692C4.56436 5.36037 4.16638 5.94866 3.90596 6.59643C3.60989 7.35382 3.45047 8.15438 3.43458 8.96351C3.38621 10.0068 3.37158 10.3372 3.37158 12.9827C3.37158 15.6282 3.37158 15.9662 3.43458 17.0018C3.45146 17.8122 3.61008 18.6117 3.90596 19.3711C4.16682 20.0187 4.56509 20.6067 5.07532 21.0977C5.58555 21.5886 6.19653 21.9717 6.86921 22.2224C7.65382 22.5184 8.48513 22.6833 9.32733 22.7099C10.4107 22.7565 10.7538 22.7706 13.5011 22.7706C16.2483 22.7706 16.6005 22.7706 17.6748 22.7099C18.5154 22.694 19.347 22.5405 20.1341 22.256C20.8065 22.0048 21.4172 21.6214 21.9272 21.1303C22.4372 20.6391 22.8353 20.0511 23.0962 19.4036C23.3921 18.6453 23.5507 17.8458 23.5676 17.0343C23.616 15.9922 23.6306 15.6618 23.6306 13.0152C23.6283 10.3697 23.6283 10.0338 23.5653 8.9971ZM13.4932 17.9855C10.62 17.9855 8.29233 15.7441 8.29233 12.9773C8.29233 10.2104 10.62 7.96901 13.4932 7.96901C14.8726 7.96901 16.1954 8.49667 17.1708 9.4359C18.1461 10.3751 18.6941 11.649 18.6941 12.9773C18.6941 14.3055 18.1461 15.5794 17.1708 16.5186C16.1954 17.4579 14.8726 17.9855 13.4932 17.9855ZM18.9011 8.9516C18.7418 8.95174 18.584 8.92163 18.4368 8.86299C18.2896 8.80435 18.1559 8.71834 18.0432 8.60987C17.9306 8.50139 17.8412 8.3726 17.7803 8.23084C17.7195 8.08909 17.6882 7.93717 17.6883 7.78376C17.6883 7.63047 17.7197 7.47868 17.7806 7.33706C17.8415 7.19544 17.9308 7.06676 18.0434 6.95836C18.1559 6.84997 18.2896 6.76399 18.4366 6.70533C18.5837 6.64667 18.7413 6.61647 18.9005 6.61647C19.0597 6.61647 19.2173 6.64667 19.3644 6.70533C19.5115 6.76399 19.6451 6.84997 19.7577 6.95836C19.8702 7.06676 19.9595 7.19544 20.0204 7.33706C20.0814 7.47868 20.1127 7.63047 20.1127 7.78376C20.1127 8.42943 19.5705 8.9516 18.9011 8.9516Z" fill="black"/>
<path d="M13.4931 16.2305C15.3589 16.2305 16.8715 14.774 16.8715 12.9772C16.8715 11.1805 15.3589 9.724 13.4931 9.724C11.6273 9.724 10.1147 11.1805 10.1147 12.9772C10.1147 14.774 11.6273 16.2305 13.4931 16.2305Z" fill="black"/>
</svg>
