<svg width="27" height="26" viewBox="0 0 27 26" fill="none" xmlns="http://www.w3.org/2000/svg">
<path d="M22.0579 7.80325C21.9297 7.34543 21.6793 6.92792 21.3315 6.59226C20.9838 6.25661 20.5508 6.01451 20.0756 5.89008C18.3139 5.42425 11.2658 5.41666 11.2658 5.41666C11.2658 5.41666 4.21875 5.40908 2.45588 5.85433C1.98104 5.98449 1.54893 6.23001 1.20101 6.56731C0.8531 6.90461 0.601073 7.32238 0.469127 7.7805C0.00450185 9.477 1.64829e-06 12.9957 1.64829e-06 12.9957C1.64829e-06 12.9957 -0.00449833 16.5317 0.456752 18.2108C0.715502 19.1392 1.47488 19.8727 2.44013 20.1229C4.21988 20.5887 11.2489 20.5963 11.2489 20.5963C11.2489 20.5963 18.297 20.6039 20.0588 20.1597C20.5341 20.0355 20.9675 19.794 21.3161 19.459C21.6648 19.1241 21.9166 18.7073 22.0466 18.2498C22.5124 16.5544 22.5158 13.0368 22.5158 13.0368C22.5158 13.0368 22.5383 9.49975 22.0579 7.80325ZM9.01125 16.2554L9.01688 9.75541L14.8748 13.0108L9.01125 16.2554Z" fill="black"/>
</svg>
