<svg width="25" height="27" viewBox="0 0 25 27" fill="none" xmlns="http://www.w3.org/2000/svg">
<path d="M16.4509 7.64212L13.5415 4.5V12.375H20.8332L17.9238 9.23287L22.6113 4.17037L21.1384 2.57962L16.4509 7.64212Z" fill="black"/>
<path d="M17.1061 15.1234C16.9059 14.9269 16.6429 14.8221 16.3725 14.8311C16.1022 14.8402 15.8456 14.9623 15.6571 15.1717L13.1654 17.9404C12.5654 17.8166 11.3592 17.4105 10.1175 16.0729C8.87585 14.7307 8.49981 13.4246 8.38835 12.7811L10.9498 10.0879C11.144 9.88439 11.2572 9.60729 11.2656 9.31523C11.274 9.02316 11.1768 8.73904 10.9946 8.52299L7.14564 3.95212C6.96339 3.7354 6.7101 3.60394 6.43955 3.58566C6.169 3.56739 5.90251 3.66373 5.69668 3.85424L3.43626 5.94787C3.25587 6.14296 3.14801 6.40275 3.13314 6.67799C3.11751 6.95924 2.8196 13.6215 7.60293 18.7897C11.7758 23.2954 17.004 23.625 18.4425 23.625C18.654 23.625 18.7821 23.6182 18.8165 23.616C19.0712 23.6008 19.3117 23.4842 19.4915 23.2886L21.43 20.8462C21.6063 20.624 21.6955 20.3363 21.6788 20.0442C21.6621 19.7521 21.5407 19.4785 21.3404 19.2814L17.1061 15.1234Z" fill="black"/>
</svg>
