<svg width="35" height="35" viewBox="0 0 35 35" fill="none" xmlns="http://www.w3.org/2000/svg">
<path d="M32.0906 20.598L34.9631 6.37923C35.1705 5.35261 34.4769 4.375 33.5411 4.375H9.6741L9.11714 1.31182C8.97835 0.548311 8.38117 0 7.6884 0H1.45833C0.652908 0 0 0.734521 0 1.64062V2.73438C0 3.64048 0.652908 4.375 1.45833 4.375H5.7047L9.97324 27.852C8.95204 28.5127 8.26389 29.7515 8.26389 31.1719C8.26389 33.2861 9.78736 35 11.6667 35C13.546 35 15.0694 33.2861 15.0694 31.1719C15.0694 30.1004 14.6777 29.1324 14.0472 28.4375H26.7861C26.1556 29.1324 25.7639 30.1004 25.7639 31.1719C25.7639 33.2861 27.2874 35 29.1667 35C31.046 35 32.5695 33.2861 32.5695 31.1719C32.5695 29.6562 31.7863 28.3464 30.6506 27.7262L30.9858 26.0667C31.1932 25.0401 30.4996 24.0625 29.5638 24.0625H13.2536L12.8559 21.875H30.6686C31.3495 21.875 31.9398 21.3449 32.0906 20.598Z" fill="black"/>
</svg>
