<svg width="18" height="19" viewBox="0 0 18 19" fill="none" xmlns="http://www.w3.org/2000/svg">
<path d="M17.7918 7.77206H9.20875V11.4417H14.1481C13.6884 13.7736 11.764 15.1134 9.20875 15.1134C8.49375 15.1147 7.78555 14.9703 7.12476 14.6886C6.46397 14.4069 5.86359 13.9933 5.35806 13.4717C4.85253 12.9501 4.4518 12.3307 4.17884 11.6489C3.90588 10.9672 3.76607 10.2365 3.76743 9.49893C3.76621 8.76142 3.90612 8.0309 4.17913 7.34928C4.45215 6.66766 4.85291 6.04834 5.35843 5.52684C5.86394 5.00533 6.46428 4.5919 7.125 4.31025C7.78572 4.02859 8.49384 3.88426 9.20875 3.88552C10.5065 3.88552 11.6795 4.36083 12.5999 5.13814L15.2799 2.3745C13.6471 0.906014 11.5537 4.0469e-05 9.20875 4.0469e-05C7.99845 -0.00360913 6.7994 0.239623 5.68055 0.715748C4.5617 1.19187 3.54513 1.8915 2.68932 2.77438C1.83351 3.65726 1.15534 4.70597 0.693808 5.86021C0.23228 7.01444 -0.00349539 8.25142 4.23134e-05 9.5C-0.0036322 10.7486 0.23205 11.9857 0.693529 13.14C1.15501 14.2943 1.83318 15.343 2.68902 16.2259C3.54486 17.1088 4.56148 17.8085 5.68039 18.2845C6.7993 18.7606 7.99841 19.0037 9.20875 19C13.8131 19 18 15.5451 18 9.5C18 8.93855 17.9165 8.3335 17.7918 7.77206Z" fill="black"/>
</svg>
