<svg width="16" height="20" viewBox="0 0 16 20" fill="none" xmlns="http://www.w3.org/2000/svg">
<path d="M8.11458 20C9.70183 20 16 12.9678 16 8.25445C16 3.74222 12.4191 0 8.11458 0C3.57976 0 1.51743e-07 3.74 1.51743e-07 8.25445C-0.00112876 12.9667 6.29704 20 8.11458 20ZM6.84682 3.20556C7.26887 3.10217 7.70224 3.0503 8.13716 3.05111C10.6772 3.05111 12.8628 5.17667 12.8628 7.93778C12.8628 10.4244 10.6772 12.55 8.12587 12.55C5.29345 12.55 3.10901 10.4244 3.10901 7.93778C3.10901 6.77444 3.49058 5.73778 4.14986 4.91222V4.93667C4.14986 5.97444 5.00219 6.79889 6.05546 6.79889C7.10873 6.80111 7.99944 5.95 7.99944 4.91333C7.99835 4.54858 7.88871 4.19214 7.68407 3.88804C7.47943 3.58394 7.18875 3.34552 6.84795 3.20222L6.84682 3.20556Z" fill="black"/>
</svg>
